<?xml version="1.0" encoding="UTF-8" standalone="no"?>
<svg
   xmlns:dc="http://purl.org/dc/elements/1.1/"
   xmlns:cc="http://creativecommons.org/ns#"
   xmlns:rdf="http://www.w3.org/1999/02/22-rdf-syntax-ns#"
   xmlns:svg="http://www.w3.org/2000/svg"
   xmlns="http://www.w3.org/2000/svg"
   xmlns:sodipodi="http://sodipodi.sourceforge.net/DTD/sodipodi-0.dtd"
   xmlns:inkscape="http://www.inkscape.org/namespaces/inkscape"
   version="1.0"
   width="400.000000pt"
   height="573.000000pt"
   viewBox="0 0 400.000000 573.000000"
   preserveAspectRatio="xMidYMid meet"
   id="svg5936"
   sodipodi:docname="logo1.svg"
   inkscape:version="0.92.3 (2405546, 2018-03-11)">
  <metadata
     id="metadata5942">
    <rdf:RDF>
      <cc:Work
         rdf:about="">
        <dc:format>image/svg+xml</dc:format>
        <dc:type
           rdf:resource="http://purl.org/dc/dcmitype/StillImage" />
        <dc:title></dc:title>
      </cc:Work>
    </rdf:RDF>
  </metadata>
  <defs
     id="defs5940">
    <marker
       inkscape:isstock="true"
       style="overflow:visible"
       id="Arrow1Lend"
       refX="0"
       refY="0"
       orient="auto"
       inkscape:stockid="Arrow1Lend">
      <path
         inkscape:connector-curvature="0"
         transform="matrix(-0.8,0,0,-0.8,-10,0)"
         style="fill-rule:evenodd;stroke:#000000;stroke-width:1.00000003pt"
         d="M 0,0 5,-5 -12.5,0 5,5 Z"
         id="path4643" />
    </marker>
  </defs>
  <sodipodi:namedview
     pagecolor="#ffffff"
     bordercolor="#666666"
     borderopacity="1"
     objecttolerance="10"
     gridtolerance="10"
     guidetolerance="10"
     inkscape:pageopacity="0"
     inkscape:pageshadow="2"
     inkscape:window-width="1366"
     inkscape:window-height="745"
     id="namedview5938"
     showgrid="false"
     inkscape:zoom="0.61780105"
     inkscape:cx="398.99455"
     inkscape:cy="350.33479"
     inkscape:window-x="-8"
     inkscape:window-y="-8"
     inkscape:window-maximized="1"
     inkscape:current-layer="svg5936" />
  <path
     style="fill:#cf3034;fill-opacity:1;stroke:none;stroke-width:0.1"
     inkscape:connector-curvature="0"
     id="path5832"
     d="m 143.59788,173.4856 c -11.6,3.5 -19,13.6 -19.1,26 -0.1,15.8 11.3,27.3 26.9,27.3 15,-0.1 25.9,-10.2 26.9,-24.9 0.8,-11.6 -3.8,-20.3 -13.6,-25.8 -5.9,-3.3 -15.1,-4.4 -21.1,-2.6 z" />
  <path
     style="fill:#3fa14c;fill-opacity:1;stroke:none;stroke-width:0.1"
     inkscape:connector-curvature="0"
     id="path5834"
     d="m 186.69788,176.5856 c -1.7,1.7 -1.7,44.9 0,46.6 1.7,1.7 44.9,1.7 46.6,0 1.7,-1.7 1.7,-44.9 0,-46.6 -0.9,-0.9 -7.4,-1.2 -23.3,-1.2 -15.9,0 -22.4,0.3 -23.3,1.2 z" />
  <path
     style="fill:#3fa14c;fill-opacity:1;stroke:none;stroke-width:0.1"
     inkscape:connector-curvature="0"
     id="path5836"
     d="m 244.69788,176.5856 c -1.5,1.5 -1.7,43 -0.2,45.9 1,1.8 2.3,1.9 23.4,1.9 20.3,0 22.4,-0.2 23.9,-1.8 1.5,-1.6 1.7,-4.7 1.7,-22.6 0,-12.4 -0.4,-21.5 -1,-22.7 -1,-1.8 -2.4,-1.9 -23.8,-1.9 -16.4,0 -23.1,0.3 -24,1.2 z" />
  <path
     style="fill:#3fa14c;fill-opacity:1;stroke:none;stroke-width:0.1"
     inkscape:connector-curvature="0"
     id="path5838"
     d="m 128.09788,234.9856 c -1.4,1.3 -1.6,4.9 -1.6,23.4 0,21.5 0,21.9 2.2,23.4 1.9,1.3 5.8,1.6 23,1.6 19.5,0 20.9,-0.1 22.8,-2 1.9,-1.9 2,-3.3 2,-23.4 0,-18.2 -0.2,-21.7 -1.6,-23 -1.3,-1.4 -4.9,-1.6 -23.4,-1.6 -18.5,0 -22.1,0.2 -23.4,1.6 z" />
  <path
     style="fill:#3fa14c;fill-opacity:1;stroke:none;stroke-width:0.1"
     inkscape:connector-curvature="0"
     id="path5840"
     d="m 186.69788,234.5856 c -0.9,0.9 -1.2,7.6 -1.2,24 v 22.8 l 2.6,1 c 1.4,0.6 11.4,1 22.2,1 16.3,0 20.1,-0.3 22,-1.6 2.2,-1.5 2.2,-1.9 2.2,-23.8 0,-15.9 -0.3,-22.5 -1.2,-23.4 -1.7,-1.7 -44.9,-1.7 -46.6,0 z" />
  <path
     style="fill:#3fa14c;fill-opacity:1;stroke:none;stroke-width:0.1"
     inkscape:connector-curvature="0"
     id="path5842"
     d="m 128.69788,292.9856 c -2.2,1.5 -2.2,1.9 -2.2,23.4 0,18.5 0.2,22.1 1.6,23.4 2.3,2.4 44.5,2.4 46.8,0 1.4,-1.3 1.6,-4.8 1.6,-23 0,-20.1 -0.1,-21.5 -2,-23.4 -1.9,-1.9 -3.3,-2 -22.8,-2 -17.2,0 -21.1,0.3 -23,1.6 z" />
  <path
     style="fill:#3fa14c;fill-opacity:1;stroke:none;stroke-width:0.1"
     inkscape:connector-curvature="0"
     id="path5844"
     d="m 187.29788,292.4856 c -1.6,0.9 -1.8,3.1 -1.8,23.7 0,16.4 0.3,23.1 1.2,24 1.7,1.7 44.9,1.7 46.6,0 0.9,-0.9 1.2,-7.5 1.2,-23.4 0,-21.9 0,-22.3 -2.2,-23.8 -1.9,-1.3 -5.8,-1.6 -22.8,-1.6 -12,0 -21.2,0.5 -22.2,1.1 z" />
  <path
     style="fill:#3fa14c;fill-opacity:1;stroke:none;stroke-width:0.1"
     inkscape:connector-curvature="0"
     id="path5846"
     d="m 245.69788,292.9856 c -2.2,1.5 -2.2,1.9 -2.2,23.4 0,18.5 0.2,22.1 1.6,23.4 1.3,1.4 4.9,1.6 23.4,1.6 21.5,0 21.9,0 23.4,-2.2 1.3,-1.9 1.6,-5.8 1.6,-23 0,-19.5 -0.1,-20.9 -2,-22.8 -1.9,-1.9 -3.3,-2 -22.8,-2 -17.2,0 -21.1,0.3 -23,1.6 z" />
  <path
     style="fill:#3fa14c;fill-opacity:1;stroke:none;stroke-width:0.1"
     inkscape:connector-curvature="0"
     id="path5848"
     d="m 128.09788,351.9856 c -2.2,2.2 -2.4,43 -0.2,46 1.4,1.8 2.8,1.9 23.6,1.9 20.8,0 22.2,-0.1 23.6,-1.9 2.2,-3 2,-43.8 -0.2,-46 -1.3,-1.4 -4.9,-1.6 -23.4,-1.6 -18.5,0 -22.1,0.2 -23.4,1.6 z" />
  <path
     style="fill:#3fa14c;fill-opacity:1;stroke:none;stroke-width:0.1"
     inkscape:connector-curvature="0"
     id="path5850"
     d="m 186.69788,351.5856 c -0.9,0.9 -1.2,7.6 -1.2,24 v 22.8 l 2.6,1 c 1.4,0.6 11.4,1 22.2,1 16.3,0 20.1,-0.3 22,-1.6 2.2,-1.5 2.2,-1.9 2.2,-23.8 0,-15.9 -0.3,-22.5 -1.2,-23.4 -1.7,-1.7 -44.9,-1.7 -46.6,0 z" />
</svg>
