<?xml version="1.0" standalone="no"?>
<!DOCTYPE svg PUBLIC "-//W3C//DTD SVG 20010904//EN"
 "http://www.w3.org/TR/2001/REC-SVG-20010904/DTD/svg10.dtd">
<svg version="1.0" xmlns="http://www.w3.org/2000/svg"
 width="716.000000pt" height="716.000000pt" viewBox="0 0 716.000000 716.000000"
 preserveAspectRatio="xMidYMid meet">
<metadata>
Created by potrace 1.11, written by Peter Selinger 2001-2013
</metadata>
<g transform="translate(0.000000,716.000000) scale(0.100000,-0.100000)"
fill="#000000" stroke="none">
<path d="M2910 5000 c-89 -16 -179 -77 -223 -153 -136 -232 21 -522 281 -519
205 3 339 136 340 339 0 128 -55 223 -169 291 -55 33 -165 53 -229 42z"/>
<path d="M3438 4962 c-18 -2 -28 -10 -29 -20 -14 -187 -11 -553 4 -569 11 -10
109 -16 277 -15 253 1 284 2 298 11 17 10 22 72 22 276 -1 241 -5 296 -24 311
-11 8 -93 11 -268 10 -139 0 -265 -2 -280 -4z"/>
<path d="M4163 4962 c-12 -2 -25 -13 -29 -25 -10 -30 -11 -498 -2 -533 5 -19
17 -33 35 -39 31 -12 467 -12 525 -1 28 5 39 13 46 36 12 33 10 515 -2 542 -4
9 -16 18 -27 21 -21 6 -510 5 -546 -1z"/>
<path d="M2746 4243 c-1 -1 -14 -4 -30 -7 -16 -3 -34 -10 -40 -16 -7 -7 -11
-101 -11 -285 0 -322 -5 -306 102 -311 37 -2 70 -4 73 -4 14 -3 358 1 375 5
11 2 23 4 27 4 4 1 15 13 25 28 16 23 18 55 19 262 0 231 -7 310 -30 312 -6 0
-20 3 -31 5 -19 5 -474 11 -479 7z"/>
<path d="M3567 4243 c-1 -1 -32 -3 -69 -4 -37 -1 -72 -5 -78 -9 -16 -10 -20
-72 -22 -338 -1 -255 -1 -260 42 -263 131 -10 417 -13 485 -4 77 10 85 25 86
159 0 140 -2 361 -5 403 -3 40 -8 46 -49 50 -38 4 -387 10 -390 6z"/>
<path d="M2996 3523 c-3 -3 -61 -7 -128 -8 -165 -3 -161 -2 -185 -25 -20 -18
-21 -27 -20 -289 1 -178 6 -274 13 -281 18 -18 101 -25 309 -24 238 0 288 7
294 37 1 7 3 128 4 270 3 325 11 309 -149 313 -59 2 -114 6 -120 8 -7 3 -15 2
-18 -1z"/>
<path d="M3460 3512 c-19 -2 -39 -7 -44 -12 -14 -13 -16 -65 -16 -295 1 -275
2 -285 26 -298 18 -10 420 -16 522 -7 49 4 54 10 58 59 7 76 3 489 -4 523 -6
27 -56 32 -277 33 -126 0 -246 -1 -265 -3z"/>
<path d="M4183 3508 c-37 -8 -44 -14 -51 -41 -10 -38 -8 -503 2 -534 11 -33
50 -37 324 -37 237 0 243 0 265 22 22 22 22 26 22 288 l0 266 -26 22 c-26 22
-32 23 -260 23 -129 0 -253 -4 -276 -9z"/>
<path d="M2857 2784 c-1 -1 -39 -4 -85 -7 -46 -3 -86 -7 -89 -11 -15 -15 -21
-118 -20 -333 2 -207 4 -234 20 -250 16 -16 43 -18 270 -19 224 -1 298 4 315
20 11 12 15 83 16 281 0 116 -3 231 -7 257 -8 46 -9 47 -50 53 -36 5 -366 13
-370 9z"/>
<path d="M3703 2783 c-4 -1 -70 -3 -145 -5 -76 -3 -140 -7 -143 -10 -11 -10
-15 -97 -17 -337 -2 -273 -7 -255 78 -267 52 -7 438 -8 464 0 48 13 59 20 64
39 8 33 6 542 -3 556 -5 8 -41 14 -97 17 -120 7 -192 10 -201 7z"/>
</g>
</svg>
